<svg version="1.1" id="Layer_1" xmlns="http://www.w3.org/2000/svg" xmlns:xlink="http://www.w3.org/1999/xlink" x="0px" y="0px"
	 width="100%" viewBox="0 0 2000 1500" enable-background="new 0 0 2000 1500" xml:space="preserve">
<path fill="#282634" opacity="1.000000" stroke="none" 
	d="
M1355.000000,1501.000000 
	C903.333496,1501.000000 452.166931,1501.000000 1.000303,1501.000000 
	C1.000202,1001.000305 1.000202,501.000580 1.000101,1.000638 
	C667.666199,1.000425 1334.332397,1.000425 2000.998901,1.000213 
	C2000.999268,500.999359 2000.999268,1000.998718 2000.999634,1500.999023 
	C1785.833374,1501.000000 1570.666626,1501.000000 1355.000000,1501.000000 
M657.646240,571.951111 
	C658.092834,573.026550 658.511169,574.114685 658.989990,575.175537 
	C719.530701,709.301392 780.074158,843.426086 840.625061,977.547363 
	C844.117981,985.284119 847.604004,993.025513 851.230469,1000.699951 
	C852.876404,1004.183044 855.235840,1006.614319 859.710632,1006.363525 
	C884.832397,1004.955322 909.966553,1003.767944 935.088135,1002.356567 
	C943.659119,1001.875000 945.688721,999.477051 945.804565,990.810486 
	C945.831299,988.810791 945.818787,986.810608 945.821228,984.810608 
	C945.986816,850.810730 946.150391,716.810913 946.330750,582.811035 
	C946.333984,580.384949 946.537720,577.959167 946.657654,575.319092 
	C949.217712,575.319092 951.202515,575.283325 953.185730,575.324951 
	C964.682007,575.566223 976.176880,575.910583 987.674316,576.044373 
	C993.649109,576.113831 996.150269,573.628662 995.754517,567.880676 
	C994.438538,548.766785 993.064880,529.655273 991.479553,510.562256 
	C990.842529,502.891663 989.781067,502.208801 982.142761,502.262115 
	C969.144287,502.352844 956.146057,502.492401 943.147461,502.554688 
	C908.815796,502.719208 874.483887,502.846344 840.152222,503.005127 
	C833.022095,503.038116 830.490356,504.989807 830.239502,511.296936 
	C829.543823,528.780945 828.935242,546.270386 828.530334,563.763184 
	C828.369263,570.722717 829.729858,571.777466 836.693665,571.970398 
	C851.020081,572.367249 865.344116,572.969910 879.672729,573.104675 
	C884.257019,573.147766 885.561584,574.713196 885.632996,579.160400 
	C886.052917,605.321899 886.709717,631.479919 887.345093,657.637634 
	C889.494080,746.106995 891.668945,834.575745 893.815552,923.045166 
	C893.843018,924.178101 893.627808,925.316895 893.411011,927.733276 
	C892.110840,924.942139 891.393188,923.460571 890.724243,921.957397 
	C829.880859,785.233948 769.042908,648.507935 708.198242,511.785004 
	C703.685730,501.644928 700.311523,499.676849 689.294312,500.243469 
	C657.010315,501.903717 624.723206,503.504639 592.437317,505.127808 
	C578.956848,505.805542 565.474243,506.443542 551.996521,507.171661 
	C544.319641,507.586426 542.347107,509.645416 541.877075,517.135986 
	C541.365784,525.284363 540.735413,533.425293 540.218628,541.573364 
	C539.617371,551.051941 539.062012,560.533508 538.526245,570.015991 
	C538.106323,577.449036 539.985657,579.448059 547.177856,579.195435 
	C554.171997,578.949768 561.161499,578.457336 568.156555,578.376892 
	C580.109558,578.239380 592.065369,578.338989 604.369690,578.338989 
	C604.369690,695.801575 604.369690,814.189575 604.369690,932.862122 
	C602.407471,932.960083 600.769958,933.074524 599.130615,933.118408 
	C584.470581,933.510559 569.808899,933.849915 555.150452,934.293640 
	C549.334290,934.469666 547.294678,936.375427 547.831543,941.867798 
	C549.581238,959.769714 551.433472,977.665100 553.573669,995.523682 
	C554.392395,1002.355774 556.220703,1003.512390 563.162659,1003.555115 
	C601.660217,1003.792114 640.157959,1004.003174 678.655334,1004.255188 
	C691.653809,1004.340271 704.651428,1004.604248 717.649719,1004.620544 
	C724.439819,1004.629028 727.292114,1002.064819 726.806091,996.300781 
	C725.028687,975.218933 723.139954,954.145996 721.164917,933.081665 
	C720.634521,927.424255 719.065857,926.335266 713.340515,926.677124 
	C698.537170,927.560913 683.723633,928.309814 668.937500,929.422546 
	C665.053406,929.714783 664.084106,928.534302 664.045349,924.846619 
	C663.889343,910.015747 663.452026,895.187988 663.128052,880.358826 
	C660.919067,779.220764 658.705933,678.082764 656.554382,576.943542 
	C656.513977,575.045959 657.211182,573.132751 657.491150,571.337952 
	C657.491150,571.337952 657.519043,571.208862 657.646240,571.951111 
M1339.199219,984.311401 
	C1341.999268,989.421082 1344.825562,994.516602 1347.591675,999.644592 
	C1350.135498,1004.360291 1353.961182,1006.585693 1359.391602,1006.438965 
	C1389.706787,1005.619690 1420.025024,1004.917603 1450.340576,1004.109863 
	C1457.553711,1003.917664 1461.410034,1000.650696 1462.838013,993.611694 
	C1463.365112,991.013733 1463.656006,988.318420 1463.646606,985.668945 
	C1463.586060,968.671692 1463.498657,951.673462 1463.237671,934.678345 
	C1463.111694,926.471436 1458.569336,922.625366 1450.324463,923.326172 
	C1433.064087,924.793152 1415.798218,926.205811 1398.554199,927.846130 
	C1395.271484,928.158325 1393.487671,927.214355 1391.726929,924.417969 
	C1364.749390,881.574280 1337.645752,838.809998 1310.589478,796.015930 
	C1309.832153,794.818115 1309.272949,793.495178 1308.426270,791.851929 
	C1313.861450,790.457642 1318.865845,789.357422 1323.760132,787.889709 
	C1369.309082,774.230408 1401.559937,746.326782 1415.478027,699.987366 
	C1424.296021,670.628967 1424.511475,640.426331 1419.529541,610.367004 
	C1414.888794,582.366638 1404.210083,556.975769 1383.465210,536.699524 
	C1363.137817,516.831177 1338.099365,506.234741 1310.888428,499.966339 
	C1281.579346,493.214630 1251.789429,492.723358 1221.927124,493.219177 
	C1165.595703,494.154480 1109.375732,497.023224 1053.319336,502.813690 
	C1041.462158,504.038513 1039.074707,507.105865 1040.598145,518.952209 
	C1042.530884,533.981689 1044.291016,549.034607 1045.977539,564.094055 
	C1047.064697,573.800781 1049.704834,576.744873 1059.622070,576.741760 
	C1068.936035,576.738770 1078.248169,575.865417 1087.564331,575.442444 
	C1090.305664,575.317993 1093.057251,575.423340 1095.786621,575.423340 
	C1095.786621,693.964417 1095.786621,812.200806 1095.786621,930.723206 
	C1083.127686,929.814514 1070.849854,928.866577 1058.561890,928.076355 
	C1051.305786,927.609741 1049.708252,929.085449 1048.922119,936.142273 
	C1048.111084,943.424561 1047.213745,950.697144 1046.393188,957.978455 
	C1044.920166,971.052063 1043.342896,984.116028 1042.073853,997.209717 
	C1041.393066,1004.235107 1043.542480,1006.883423 1049.487183,1006.921570 
	C1103.975586,1007.271545 1158.464355,1007.589294 1212.953247,1007.851135 
	C1219.546631,1007.882874 1221.932739,1005.229370 1221.727295,998.595032 
	C1221.479736,990.601135 1221.157837,982.609375 1220.845215,974.617615 
	C1220.389160,962.962830 1219.855957,951.310852 1219.472168,939.653748 
	C1219.313843,934.845825 1217.112793,932.719177 1212.257324,932.994385 
	C1208.436768,933.210815 1204.594116,933.036499 1200.761353,933.036438 
	C1190.643921,933.036194 1180.526489,933.036255 1169.623901,933.036255 
	C1169.623901,885.768921 1169.623901,839.058838 1169.623901,792.229492 
	C1171.629517,792.229492 1173.766113,792.137024 1175.892822,792.244080 
	C1194.024414,793.156677 1212.148315,794.271667 1230.289062,794.922241 
	C1234.615967,795.077454 1237.015503,796.237427 1239.165649,800.210754 
	C1272.289429,861.417786 1305.611938,922.517212 1339.199219,984.311401 
M443.762909,402.249359 
	C547.310852,322.203094 663.922668,291.832977 793.123779,312.016693 
	C877.549683,325.205627 951.440735,361.618622 1015.538208,418.020325 
	C1020.896301,422.735046 1025.521729,429.325897 1031.760864,431.703217 
	C1038.030029,434.091980 1045.891602,432.306488 1053.055420,432.340210 
	C1056.048584,432.354309 1059.041870,432.342560 1062.926270,432.342560 
	C938.897888,296.973724 735.505615,241.642059 548.412659,315.297485 
	C361.348236,388.941742 235.822372,577.775879 254.185486,791.471558 
	C271.728973,995.628967 421.064575,1164.333130 620.523804,1207.620728 
	C701.080811,1225.103760 781.053528,1221.685181 859.874023,1197.084473 
	C938.591187,1172.515991 1005.784973,1129.617432 1063.398438,1068.657593 
	C1053.228760,1068.657593 1044.597412,1068.826416 1035.978271,1068.577515 
	C1032.339966,1068.472534 1029.795654,1069.647461 1027.186035,1072.133911 
	C912.653503,1181.255737 750.813660,1221.477173 598.625366,1178.187256 
	C511.248322,1153.332886 437.646545,1106.222168 379.888428,1036.178589 
	C289.596069,926.681030 257.874634,801.059875 284.774872,662.001587 
	C305.192474,556.454651 359.768921,470.424286 443.762909,402.249359 
z"/>
<path fill="#FE4057" opacity="1.000000" stroke="none" 
	d="
M657.564209,571.226807 
	C657.211182,573.132751 656.513977,575.045959 656.554382,576.943542 
	C658.705933,678.082764 660.919067,779.220764 663.128052,880.358826 
	C663.452026,895.187988 663.889343,910.015747 664.045349,924.846619 
	C664.084106,928.534302 665.053406,929.714783 668.937500,929.422546 
	C683.723633,928.309814 698.537170,927.560913 713.340515,926.677124 
	C719.065857,926.335266 720.634521,927.424255 721.164917,933.081665 
	C723.139954,954.145996 725.028687,975.218933 726.806091,996.300781 
	C727.292114,1002.064819 724.439819,1004.629028 717.649719,1004.620544 
	C704.651428,1004.604248 691.653809,1004.340271 678.655334,1004.255188 
	C640.157959,1004.003174 601.660217,1003.792114 563.162659,1003.555115 
	C556.220703,1003.512390 554.392395,1002.355774 553.573669,995.523682 
	C551.433472,977.665100 549.581238,959.769714 547.831543,941.867798 
	C547.294678,936.375427 549.334290,934.469666 555.150452,934.293640 
	C569.808899,933.849915 584.470581,933.510559 599.130615,933.118408 
	C600.769958,933.074524 602.407471,932.960083 604.369690,932.862122 
	C604.369690,814.189575 604.369690,695.801575 604.369690,578.338989 
	C592.065369,578.338989 580.109558,578.239380 568.156555,578.376892 
	C561.161499,578.457336 554.171997,578.949768 547.177856,579.195435 
	C539.985657,579.448059 538.106323,577.449036 538.526245,570.015991 
	C539.062012,560.533508 539.617371,551.051941 540.218628,541.573364 
	C540.735413,533.425293 541.365784,525.284363 541.877075,517.135986 
	C542.347107,509.645416 544.319641,507.586426 551.996521,507.171661 
	C565.474243,506.443542 578.956848,505.805542 592.437317,505.127808 
	C624.723206,503.504639 657.010315,501.903717 689.294312,500.243469 
	C700.311523,499.676849 703.685730,501.644928 708.198242,511.785004 
	C769.042908,648.507935 829.880859,785.233948 890.724243,921.957397 
	C891.393188,923.460571 892.110840,924.942139 893.411011,927.733276 
	C893.627808,925.316895 893.843018,924.178101 893.815552,923.045166 
	C891.668945,834.575745 889.494080,746.106995 887.345093,657.637634 
	C886.709717,631.479919 886.052917,605.321899 885.632996,579.160400 
	C885.561584,574.713196 884.257019,573.147766 879.672729,573.104675 
	C865.344116,572.969910 851.020081,572.367249 836.693665,571.970398 
	C829.729858,571.777466 828.369263,570.722717 828.530334,563.763184 
	C828.935242,546.270386 829.543823,528.780945 830.239502,511.296936 
	C830.490356,504.989807 833.022095,503.038116 840.152222,503.005127 
	C874.483887,502.846344 908.815796,502.719208 943.147461,502.554688 
	C956.146057,502.492401 969.144287,502.352844 982.142761,502.262115 
	C989.781067,502.208801 990.842529,502.891663 991.479553,510.562256 
	C993.064880,529.655273 994.438538,548.766785 995.754517,567.880676 
	C996.150269,573.628662 993.649109,576.113831 987.674316,576.044373 
	C976.176880,575.910583 964.682007,575.566223 953.185730,575.324951 
	C951.202515,575.283325 949.217712,575.319092 946.657654,575.319092 
	C946.537720,577.959167 946.333984,580.384949 946.330750,582.811035 
	C946.150391,716.810913 945.986816,850.810730 945.821228,984.810608 
	C945.818787,986.810608 945.831299,988.810791 945.804565,990.810486 
	C945.688721,999.477051 943.659119,1001.875000 935.088135,1002.356567 
	C909.966553,1003.767944 884.832397,1004.955322 859.710632,1006.363525 
	C855.235840,1006.614319 852.876404,1004.183044 851.230469,1000.699951 
	C847.604004,993.025513 844.117981,985.284119 840.625061,977.547363 
	C780.074158,843.426086 719.530701,709.301392 658.989990,575.175537 
	C658.511169,574.114685 658.092834,573.026550 657.497314,571.720703 
	C657.348450,571.490356 657.264771,571.565430 657.264771,571.565430 
	C657.264771,571.565430 657.564209,571.226807 657.564209,571.226807 
z"/>
<path fill="#FE4057" opacity="1.000000" stroke="none" 
	d="
M1339.043701,983.976501 
	C1305.611938,922.517212 1272.289429,861.417786 1239.165649,800.210754 
	C1237.015503,796.237427 1234.615967,795.077454 1230.289062,794.922241 
	C1212.148315,794.271667 1194.024414,793.156677 1175.892822,792.244080 
	C1173.766113,792.137024 1171.629517,792.229492 1169.623901,792.229492 
	C1169.623901,839.058838 1169.623901,885.768921 1169.623901,933.036255 
	C1180.526489,933.036255 1190.643921,933.036194 1200.761353,933.036438 
	C1204.594116,933.036499 1208.436768,933.210815 1212.257324,932.994385 
	C1217.112793,932.719177 1219.313843,934.845825 1219.472168,939.653748 
	C1219.855957,951.310852 1220.389160,962.962830 1220.845215,974.617615 
	C1221.157837,982.609375 1221.479736,990.601135 1221.727295,998.595032 
	C1221.932739,1005.229370 1219.546631,1007.882874 1212.953247,1007.851135 
	C1158.464355,1007.589294 1103.975586,1007.271545 1049.487183,1006.921570 
	C1043.542480,1006.883423 1041.393066,1004.235107 1042.073853,997.209717 
	C1043.342896,984.116028 1044.920166,971.052063 1046.393188,957.978455 
	C1047.213745,950.697144 1048.111084,943.424561 1048.922119,936.142273 
	C1049.708252,929.085449 1051.305786,927.609741 1058.561890,928.076355 
	C1070.849854,928.866577 1083.127686,929.814514 1095.786621,930.723206 
	C1095.786621,812.200806 1095.786621,693.964417 1095.786621,575.423340 
	C1093.057251,575.423340 1090.305664,575.317993 1087.564331,575.442444 
	C1078.248169,575.865417 1068.936035,576.738770 1059.622070,576.741760 
	C1049.704834,576.744873 1047.064697,573.800781 1045.977539,564.094055 
	C1044.291016,549.034607 1042.530884,533.981689 1040.598145,518.952209 
	C1039.074707,507.105865 1041.462158,504.038513 1053.319336,502.813690 
	C1109.375732,497.023224 1165.595703,494.154480 1221.927124,493.219177 
	C1251.789429,492.723358 1281.579346,493.214630 1310.888428,499.966339 
	C1338.099365,506.234741 1363.137817,516.831177 1383.465210,536.699524 
	C1404.210083,556.975769 1414.888794,582.366638 1419.529541,610.367004 
	C1424.511475,640.426331 1424.296021,670.628967 1415.478027,699.987366 
	C1401.559937,746.326782 1369.309082,774.230408 1323.760132,787.889709 
	C1318.865845,789.357422 1313.861450,790.457642 1308.426270,791.851929 
	C1309.272949,793.495178 1309.832153,794.818115 1310.589478,796.015930 
	C1337.645752,838.809998 1364.749390,881.574280 1391.726929,924.417969 
	C1393.487671,927.214355 1395.271484,928.158325 1398.554199,927.846130 
	C1415.798218,926.205811 1433.064087,924.793152 1450.324463,923.326172 
	C1458.569336,922.625366 1463.111694,926.471436 1463.237671,934.678345 
	C1463.498657,951.673462 1463.586060,968.671692 1463.646606,985.668945 
	C1463.656006,988.318420 1463.365112,991.013733 1462.838013,993.611694 
	C1461.410034,1000.650696 1457.553711,1003.917664 1450.340576,1004.109863 
	C1420.025024,1004.917603 1389.706787,1005.619690 1359.391602,1006.438965 
	C1353.961182,1006.585693 1350.135498,1004.360291 1347.591675,999.644592 
	C1344.825562,994.516602 1341.999268,989.421082 1339.043701,983.976501 
M1167.937988,713.499390 
	C1167.937988,719.777893 1167.937988,726.056335 1167.937988,732.543396 
	C1169.522217,732.728210 1170.486816,732.919250 1171.455322,732.942017 
	C1190.605957,733.391541 1209.755371,734.030640 1228.908691,734.198853 
	C1249.440796,734.379272 1269.899414,733.288940 1289.673096,727.019592 
	C1317.492920,718.199158 1337.175293,701.165405 1343.688721,671.666321 
	C1347.702393,653.487976 1346.801147,635.235840 1342.416504,617.191956 
	C1336.008911,590.822998 1319.457397,573.776917 1293.349854,567.255676 
	C1280.726196,564.102539 1267.378174,562.389709 1254.382324,562.515808 
	C1232.931763,562.723999 1211.495605,564.878235 1190.064331,566.367981 
	C1182.460449,566.896606 1174.888184,567.879700 1167.933594,568.590698 
	C1167.933594,616.920776 1167.933594,664.710266 1167.937988,713.499390 
z"/>
<path fill="#FD4057" opacity="1.000000" stroke="none" 
	d="
M443.487915,402.477966 
	C359.768921,470.424286 305.192474,556.454651 284.774872,662.001587 
	C257.874634,801.059875 289.596069,926.681030 379.888428,1036.178589 
	C437.646545,1106.222168 511.248322,1153.332886 598.625366,1178.187256 
	C750.813660,1221.477173 912.653503,1181.255737 1027.186035,1072.133911 
	C1029.795654,1069.647461 1032.339966,1068.472534 1035.978271,1068.577515 
	C1044.597412,1068.826416 1053.228760,1068.657593 1063.398438,1068.657593 
	C1005.784973,1129.617432 938.591187,1172.515991 859.874023,1197.084473 
	C781.053528,1221.685181 701.080811,1225.103760 620.523804,1207.620728 
	C421.064575,1164.333130 271.728973,995.628967 254.185486,791.471558 
	C235.822372,577.775879 361.348236,388.941742 548.412659,315.297485 
	C735.505615,241.642059 938.897888,296.973724 1062.926270,432.342560 
	C1059.041870,432.342560 1056.048584,432.354309 1053.055420,432.340210 
	C1045.891602,432.306488 1038.030029,434.091980 1031.760864,431.703217 
	C1025.521729,429.325897 1020.896301,422.735046 1015.538208,418.020325 
	C951.440735,361.618622 877.549683,325.205627 793.123779,312.016693 
	C663.922668,291.832977 547.310852,322.203094 443.487915,402.477966 
z"/>
<path fill="#282634" opacity="1.000000" stroke="none" 
	d="
M657.527710,571.282349 
	C657.564209,571.226807 657.264771,571.565430 657.264771,571.565430 
	C657.264771,571.565430 657.348450,571.490356 657.433716,571.349609 
	C657.519043,571.208862 657.491150,571.337952 657.527710,571.282349 
z"/>
<path fill="#292634" opacity="1.000000" stroke="none" 
	d="
M1167.935791,712.999573 
	C1167.933594,664.710266 1167.933594,616.920776 1167.933594,568.590698 
	C1174.888184,567.879700 1182.460449,566.896606 1190.064331,566.367981 
	C1211.495605,564.878235 1232.931763,562.723999 1254.382324,562.515808 
	C1267.378174,562.389709 1280.726196,564.102539 1293.349854,567.255676 
	C1319.457397,573.776917 1336.008911,590.822998 1342.416504,617.191956 
	C1346.801147,635.235840 1347.702393,653.487976 1343.688721,671.666321 
	C1337.175293,701.165405 1317.492920,718.199158 1289.673096,727.019592 
	C1269.899414,733.288940 1249.440796,734.379272 1228.908691,734.198853 
	C1209.755371,734.030640 1190.605957,733.391541 1171.455322,732.942017 
	C1170.486816,732.919250 1169.522217,732.728210 1167.937988,732.543396 
	C1167.937988,726.056335 1167.937988,719.777893 1167.935791,712.999573 
z"/>
</svg>
